<svg width="2718" height="917" xmlns="http://www.w3.org/2000/svg" xmlns:xlink="http://www.w3.org/1999/xlink" xml:space="preserve" overflow="hidden"><g transform="translate(-261 -352)"><g><text fill="#1D3649" fill-opacity="1" font-family="Calibri,Calibri_MSFontService,sans-serif" font-style="normal" font-variant="normal" font-weight="700" font-stretch="normal" font-size="41" text-anchor="start" direction="ltr" writing-mode="lr-tb" unicode-bidi="normal" text-decoration="none" transform="matrix(1 0 0 1 1783.16 410)">Security Capabilities</text><path d="M911.5 470.5C911.5 456.969 913.328 446 915.583 446L1939.42 446C1941.67 446 1943.5 435.031 1943.5 421.5 1943.5 435.031 1945.33 446 1947.58 446L2971.42 446C2973.67 446 2975.5 456.969 2975.5 470.5" stroke="#274800" stroke-width="6.875" stroke-linecap="butt" stroke-linejoin="round" stroke-miterlimit="10" stroke-opacity="1" fill="none" fill-rule="evenodd"/><text fill="#1D3649" fill-opacity="1" font-family="Calibri,Calibri_MSFontService,sans-serif" font-style="normal" font-variant="normal" font-weight="700" font-stretch="normal" font-size="41" text-anchor="start" direction="ltr" writing-mode="lr-tb" unicode-bidi="normal" text-decoration="none" transform="matrix(1 0 0 1 426.26 407)">Security Domains</text><path d="M267.5 470.5C267.5 456.969 269.328 446 271.583 446L573.917 446C576.172 446 578 435.031 578 421.5 578 435.031 579.828 446 582.083 446L884.417 446C886.672 446 888.5 456.969 888.5 470.5" stroke="#274800" stroke-width="6.875" stroke-linecap="butt" stroke-linejoin="round" stroke-miterlimit="10" stroke-opacity="1" fill="none" fill-rule="evenodd"/><path d="M1327 516C1327 507.164 1334.16 500 1343 500L1709 500C1717.84 500 1725 507.164 1725 516L1725 580C1725 588.837 1717.84 596 1709 596L1343 596C1334.16 596 1327 588.837 1327 580Z" stroke="#7F7F7F" stroke-width="2.29167" stroke-linecap="butt" stroke-linejoin="round" stroke-miterlimit="10" stroke-opacity="1" fill="#F2F2F2" fill-rule="evenodd" fill-opacity="1"/><text fill="#000000" fill-opacity="1" font-family="Calibri,Calibri_MSFontService,sans-serif" font-style="normal" font-variant="normal" font-weight="400" font-stretch="normal" font-size="31" text-anchor="start" direction="ltr" writing-mode="lr-tb" unicode-bidi="normal" text-decoration="none" transform="matrix(1 0 0 1 1436.05 540)">Security Policy</text><text fill="#000000" fill-opacity="1" font-family="Calibri,Calibri_MSFontService,sans-serif" font-style="normal" font-variant="normal" font-weight="400" font-stretch="normal" font-size="31" text-anchor="start" direction="ltr" writing-mode="lr-tb" unicode-bidi="normal" text-decoration="none" transform="matrix(1 0 0 1 1437.76 577)">and Processes</text><path d="M910 516C910 507.164 917.163 500 926 500L1292 500C1300.84 500 1308 507.164 1308 516L1308 580C1308 588.837 1300.84 596 1292 596L926 596C917.163 596 910 588.837 910 580Z" stroke="#7F7F7F" stroke-width="2.29167" stroke-linecap="butt" stroke-linejoin="round" stroke-miterlimit="10" stroke-opacity="1" fill="#F2F2F2" fill-rule="evenodd" fill-opacity="1"/><text fill="#000000" fill-opacity="1" font-family="Calibri,Calibri_MSFontService,sans-serif" font-style="normal" font-variant="normal" font-weight="400" font-stretch="normal" font-size="31" text-anchor="start" direction="ltr" writing-mode="lr-tb" unicode-bidi="normal" text-decoration="none" transform="matrix(1 0 0 1 971.893 540)">Strategy, Architecture</text><text fill="#000000" fill-opacity="1" font-family="Calibri,Calibri_MSFontService,sans-serif" font-style="normal" font-variant="normal" font-weight="400" font-stretch="normal" font-size="31" text-anchor="start" direction="ltr" writing-mode="lr-tb" unicode-bidi="normal" text-decoration="none" transform="matrix(1 0 0 1 1006.84 577)">and Governance</text><path d="M1744 516C1744 507.164 1751.16 500 1760 500L2126 500C2134.84 500 2142 507.164 2142 516L2142 580C2142 588.837 2134.84 596 2126 596L1760 596C1751.16 596 1744 588.837 1744 580Z" stroke="#7F7F7F" stroke-width="2.29167" stroke-linecap="butt" stroke-linejoin="round" stroke-miterlimit="10" stroke-opacity="1" fill="#99C0FF" fill-rule="evenodd" fill-opacity="1"/><text fill="#000000" fill-opacity="1" font-family="Calibri,Calibri_MSFontService,sans-serif" font-style="normal" font-variant="normal" font-weight="400" font-stretch="normal" font-size="31" text-anchor="start" direction="ltr" writing-mode="lr-tb" unicode-bidi="normal" text-decoration="none" transform="matrix(1 0 0 1 1814.55 559)">Risk and Compliance</text><path d="M2161 516C2161 507.164 2168.16 500 2177 500L2543 500C2551.84 500 2559 507.164 2559 516L2559 580C2559 588.837 2551.84 596 2543 596L2177 596C2168.16 596 2161 588.837 2161 580Z" stroke="#7F7F7F" stroke-width="2.29167" stroke-linecap="butt" stroke-linejoin="round" stroke-miterlimit="10" stroke-opacity="1" fill="#99C0FF" fill-rule="evenodd" fill-opacity="1"/><text fill="#000000" fill-opacity="1" font-family="Calibri,Calibri_MSFontService,sans-serif" font-style="normal" font-variant="normal" font-weight="400" font-stretch="normal" font-size="31" text-anchor="start" direction="ltr" writing-mode="lr-tb" unicode-bidi="normal" text-decoration="none" transform="matrix(1 0 0 1 2228.57 559)">Audit and Regulatory</text><path d="M2578 516C2578 507.164 2585.16 500 2594 500L2960 500C2968.84 500 2976 507.164 2976 516L2976 580C2976 588.837 2968.84 596 2960 596L2594 596C2585.16 596 2578 588.837 2578 580Z" stroke="#7F7F7F" stroke-width="2.29167" stroke-linecap="butt" stroke-linejoin="round" stroke-miterlimit="10" stroke-opacity="1" fill="#F2F2F2" fill-rule="evenodd" fill-opacity="1"/><text fill="#000000" fill-opacity="1" font-family="Calibri,Calibri_MSFontService,sans-serif" font-style="normal" font-variant="normal" font-weight="400" font-stretch="normal" font-size="31" text-anchor="start" direction="ltr" writing-mode="lr-tb" unicode-bidi="normal" text-decoration="none" transform="matrix(1 0 0 1 2654.62 540)">Security Awareness</text><text fill="#000000" fill-opacity="1" font-family="Calibri,Calibri_MSFontService,sans-serif" font-style="normal" font-variant="normal" font-weight="400" font-stretch="normal" font-size="31" text-anchor="start" direction="ltr" writing-mode="lr-tb" unicode-bidi="normal" text-decoration="none" transform="matrix(1 0 0 1 2687.85 577)">and Education</text><path d="M910 736C910 727.164 917.163 720 926 720L1292 720C1300.84 720 1308 727.164 1308 736L1308 800C1308 808.837 1300.84 816 1292 816L926 816C917.163 816 910 808.837 910 800Z" stroke="#7F7F7F" stroke-width="2.29167" stroke-linecap="butt" stroke-linejoin="round" stroke-miterlimit="10" stroke-opacity="1" fill="#A5CAFF" fill-rule="evenodd" fill-opacity="1"/><text fill="#000000" fill-opacity="1" font-family="Calibri,Calibri_MSFontService,sans-serif" font-style="normal" font-variant="normal" font-weight="400" font-stretch="normal" font-size="31" text-anchor="start" direction="ltr" writing-mode="lr-tb" unicode-bidi="normal" text-decoration="none" transform="matrix(1 0 0 1 1023.98 760)">Data Lifecycle</text><text fill="#000000" fill-opacity="1" font-family="Calibri,Calibri_MSFontService,sans-serif" font-style="normal" font-variant="normal" font-weight="400" font-stretch="normal" font-size="31" text-anchor="start" direction="ltr" writing-mode="lr-tb" unicode-bidi="normal" text-decoration="none" transform="matrix(1 0 0 1 1026.27 797)">Management</text><path d="M1327 736C1327 727.164 1334.16 720 1343 720L1709 720C1717.84 720 1725 727.164 1725 736L1725 800C1725 808.837 1717.84 816 1709 816L1343 816C1334.16 816 1327 808.837 1327 800Z" stroke="#7F7F7F" stroke-width="2.29167" stroke-linecap="butt" stroke-linejoin="round" stroke-miterlimit="10" stroke-opacity="1" fill="#99C0FF" fill-rule="evenodd" fill-opacity="1"/><text fill="#000000" fill-opacity="1" font-family="Calibri,Calibri_MSFontService,sans-serif" font-style="normal" font-variant="normal" font-weight="400" font-stretch="normal" font-size="31" text-anchor="start" direction="ltr" writing-mode="lr-tb" unicode-bidi="normal" text-decoration="none" transform="matrix(1 0 0 1 1467.8 760)">Data Loss</text><text fill="#000000" fill-opacity="1" font-family="Calibri,Calibri_MSFontService,sans-serif" font-style="normal" font-variant="normal" font-weight="400" font-stretch="normal" font-size="31" text-anchor="start" direction="ltr" writing-mode="lr-tb" unicode-bidi="normal" text-decoration="none" transform="matrix(1 0 0 1 1422.24 797)">Prevention (DLP)</text><path d="M1744 736C1744 727.164 1751.16 720 1760 720L2126 720C2134.84 720 2142 727.164 2142 736L2142 800C2142 808.837 2134.84 816 2126 816L1760 816C1751.16 816 1744 808.837 1744 800Z" stroke="#7F7F7F" stroke-width="2.29167" stroke-linecap="butt" stroke-linejoin="round" stroke-miterlimit="10" stroke-opacity="1" fill="#A5CAFF" fill-rule="evenodd" fill-opacity="1"/><text fill="#000000" fill-opacity="1" font-family="Calibri,Calibri_MSFontService,sans-serif" font-style="normal" font-variant="normal" font-weight="400" font-stretch="normal" font-size="31" text-anchor="start" direction="ltr" writing-mode="lr-tb" unicode-bidi="normal" text-decoration="none" transform="matrix(1 0 0 1 1809.34 760)">Data Access, Integrity</text><text fill="#000000" fill-opacity="1" font-family="Calibri,Calibri_MSFontService,sans-serif" font-style="normal" font-variant="normal" font-weight="400" font-stretch="normal" font-size="31" text-anchor="start" direction="ltr" writing-mode="lr-tb" unicode-bidi="normal" text-decoration="none" transform="matrix(1 0 0 1 1860.33 797)">&amp; Monitoring</text><path d="M2161 736C2161 727.164 2168.16 720 2177 720L2543 720C2551.84 720 2559 727.164 2559 736L2559 800C2559 808.837 2551.84 816 2543 816L2177 816C2168.16 816 2161 808.837 2161 800Z" stroke="#7F7F7F" stroke-width="2.29167" stroke-linecap="butt" stroke-linejoin="round" stroke-miterlimit="10" stroke-opacity="1" fill="#99C0FF" fill-rule="evenodd" fill-opacity="1"/><text fill="#000000" fill-opacity="1" font-family="Calibri,Calibri_MSFontService,sans-serif" font-style="normal" font-variant="normal" font-weight="400" font-stretch="normal" font-size="31" text-anchor="start" direction="ltr" writing-mode="lr-tb" unicode-bidi="normal" text-decoration="none" transform="matrix(1 0 0 1 2294.11 779)">Encryption</text><path d="M2577 736C2577 727.164 2584.16 720 2593 720L2959 720C2967.84 720 2975 727.164 2975 736L2975 800C2975 808.837 2967.84 816 2959 816L2593 816C2584.16 816 2577 808.837 2577 800Z" stroke="#7F7F7F" stroke-width="2.29167" stroke-linecap="butt" stroke-linejoin="round" stroke-miterlimit="10" stroke-opacity="1" fill="#99C0FF" fill-rule="evenodd" fill-opacity="1"/><text fill="#000000" fill-opacity="1" font-family="Calibri,Calibri_MSFontService,sans-serif" font-style="normal" font-variant="normal" font-weight="400" font-stretch="normal" font-size="31" text-anchor="start" direction="ltr" writing-mode="lr-tb" unicode-bidi="normal" text-decoration="none" transform="matrix(1 0 0 1 2660.02 760)">Key and Certificate</text><text fill="#000000" fill-opacity="1" font-family="Calibri,Calibri_MSFontService,sans-serif" font-style="normal" font-variant="normal" font-weight="400" font-stretch="normal" font-size="31" text-anchor="start" direction="ltr" writing-mode="lr-tb" unicode-bidi="normal" text-decoration="none" transform="matrix(1 0 0 1 2636.81 797)">Lifecycle Management</text><path d="M910 628C910 619.163 917.163 612 926 612L1292 612C1300.84 612 1308 619.163 1308 628L1308 692C1308 700.836 1300.84 708 1292 708L926 708C917.163 708 910 700.836 910 692Z" stroke="#7F7F7F" stroke-width="2.29167" stroke-linecap="butt" stroke-linejoin="round" stroke-miterlimit="10" stroke-opacity="1" fill="#F2F2F2" fill-rule="evenodd" fill-opacity="1"/><text fill="#000000" fill-opacity="1" font-family="Calibri,Calibri_MSFontService,sans-serif" font-style="normal" font-variant="normal" font-weight="400" font-stretch="normal" font-size="31" text-anchor="start" direction="ltr" writing-mode="lr-tb" unicode-bidi="normal" text-decoration="none" transform="matrix(1 0 0 1 979.861 652)">Secure Development</text><text fill="#000000" fill-opacity="1" font-family="Calibri,Calibri_MSFontService,sans-serif" font-style="normal" font-variant="normal" font-weight="400" font-stretch="normal" font-size="31" text-anchor="start" direction="ltr" writing-mode="lr-tb" unicode-bidi="normal" text-decoration="none" transform="matrix(1 0 0 1 1056.91 689)">Lifecycle</text><path d="M1327 628C1327 619.163 1334.16 612 1343 612L1709 612C1717.84 612 1725 619.163 1725 628L1725 692C1725 700.836 1717.84 708 1709 708L1343 708C1334.16 708 1327 700.836 1327 692Z" stroke="#7F7F7F" stroke-width="2.29167" stroke-linecap="butt" stroke-linejoin="round" stroke-miterlimit="10" stroke-opacity="1" fill="#F2F2F2" fill-rule="evenodd" fill-opacity="1"/><text fill="#000000" fill-opacity="1" font-family="Calibri,Calibri_MSFontService,sans-serif" font-style="normal" font-variant="normal" font-weight="400" font-stretch="normal" font-size="31" text-anchor="start" direction="ltr" writing-mode="lr-tb" unicode-bidi="normal" text-decoration="none" transform="matrix(1 0 0 1 1393.32 652)">Threat Modelling and</text><text fill="#000000" fill-opacity="1" font-family="Calibri,Calibri_MSFontService,sans-serif" font-style="normal" font-variant="normal" font-weight="400" font-stretch="normal" font-size="31" text-anchor="start" direction="ltr" writing-mode="lr-tb" unicode-bidi="normal" text-decoration="none" transform="matrix(1 0 0 1 1351.77 684)">Requirements Management</text><path d="M1744 628C1744 619.163 1751.16 612 1760 612L2126 612C2134.84 612 2142 619.163 2142 628L2142 692C2142 700.836 2134.84 708 2126 708L1760 708C1751.16 708 1744 700.836 1744 692Z" stroke="#7F7F7F" stroke-width="2.29167" stroke-linecap="butt" stroke-linejoin="round" stroke-miterlimit="10" stroke-opacity="1" fill="#99C0FF" fill-rule="evenodd" fill-opacity="1"/><text fill="#000000" fill-opacity="1" font-family="Calibri,Calibri_MSFontService,sans-serif" font-style="normal" font-variant="normal" font-weight="400" font-stretch="normal" font-size="31" text-anchor="start" direction="ltr" writing-mode="lr-tb" unicode-bidi="normal" text-decoration="none" transform="matrix(1 0 0 1 1873.8 652)">Application</text><text fill="#000000" fill-opacity="1" font-family="Calibri,Calibri_MSFontService,sans-serif" font-style="normal" font-variant="normal" font-weight="400" font-stretch="normal" font-size="31" text-anchor="start" direction="ltr" writing-mode="lr-tb" unicode-bidi="normal" text-decoration="none" transform="matrix(1 0 0 1 1837.41 689)">Runtime Security</text><path d="M2161 628C2161 619.163 2168.16 612 2177 612L2543 612C2551.84 612 2559 619.163 2559 628L2559 692C2559 700.836 2551.84 708 2543 708L2177 708C2168.16 708 2161 700.836 2161 692Z" stroke="#7F7F7F" stroke-width="2.29167" stroke-linecap="butt" stroke-linejoin="round" stroke-miterlimit="10" stroke-opacity="1" fill="#F2F2F2" fill-rule="evenodd" fill-opacity="1"/><text fill="#000000" fill-opacity="1" font-family="Calibri,Calibri_MSFontService,sans-serif" font-style="normal" font-variant="normal" font-weight="400" font-stretch="normal" font-size="31" text-anchor="start" direction="ltr" writing-mode="lr-tb" unicode-bidi="normal" text-decoration="none" transform="matrix(1 0 0 1 2290.69 652)">Application</text><text fill="#000000" fill-opacity="1" font-family="Calibri,Calibri_MSFontService,sans-serif" font-style="normal" font-variant="normal" font-weight="400" font-stretch="normal" font-size="31" text-anchor="start" direction="ltr" writing-mode="lr-tb" unicode-bidi="normal" text-decoration="none" transform="matrix(1 0 0 1 2262.32 689)">Security Testing</text><path d="M2577 628C2577 619.163 2584.16 612 2593 612L2959 612C2967.84 612 2975 619.163 2975 628L2975 692C2975 700.836 2967.84 708 2959 708L2593 708C2584.16 708 2577 700.836 2577 692Z" stroke="#7F7F7F" stroke-width="2.29167" stroke-linecap="butt" stroke-linejoin="round" stroke-miterlimit="10" stroke-opacity="1" fill="#F2F2F2" fill-rule="evenodd" fill-opacity="1"/><text fill="#000000" fill-opacity="1" font-family="Calibri,Calibri_MSFontService,sans-serif" font-style="normal" font-variant="normal" font-weight="400" font-stretch="normal" font-size="31" text-anchor="start" direction="ltr" writing-mode="lr-tb" unicode-bidi="normal" text-decoration="none" transform="matrix(1 0 0 1 2662.89 652)">Application Defect</text><text fill="#000000" fill-opacity="1" font-family="Calibri,Calibri_MSFontService,sans-serif" font-style="normal" font-variant="normal" font-weight="400" font-stretch="normal" font-size="31" text-anchor="start" direction="ltr" writing-mode="lr-tb" unicode-bidi="normal" text-decoration="none" transform="matrix(1 0 0 1 2638.52 689)">and Risk Management</text><path d="M910 848C910 839.163 917.163 832 926 832L1292 832C1300.84 832 1308 839.163 1308 848L1308 912C1308 920.836 1300.84 928 1292 928L926 928C917.163 928 910 920.836 910 912Z" stroke="#7F7F7F" stroke-width="2.29167" stroke-linecap="butt" stroke-linejoin="round" stroke-miterlimit="10" stroke-opacity="1" fill="#99C0FF" fill-rule="evenodd" fill-opacity="1"/><text fill="#000000" fill-opacity="1" font-family="Calibri,Calibri_MSFontService,sans-serif" font-style="normal" font-variant="normal" font-weight="400" font-stretch="normal" font-size="31" text-anchor="start" direction="ltr" writing-mode="lr-tb" unicode-bidi="normal" text-decoration="none" transform="matrix(1 0 0 1 1005.58 872)">Identity Lifecycle</text><text fill="#000000" fill-opacity="1" font-family="Calibri,Calibri_MSFontService,sans-serif" font-style="normal" font-variant="normal" font-weight="400" font-stretch="normal" font-size="31" text-anchor="start" direction="ltr" writing-mode="lr-tb" unicode-bidi="normal" text-decoration="none" transform="matrix(1 0 0 1 1026.78 909)">Management</text><path d="M1327 848C1327 839.163 1334.16 832 1343 832L1709 832C1717.84 832 1725 839.163 1725 848L1725 912C1725 920.836 1717.84 928 1709 928L1343 928C1334.16 928 1327 920.836 1327 912Z" stroke="#7F7F7F" stroke-width="2.29167" stroke-linecap="butt" stroke-linejoin="round" stroke-miterlimit="10" stroke-opacity="1" fill="#F2F2F2" fill-rule="evenodd" fill-opacity="1"/><text fill="#000000" fill-opacity="1" font-family="Calibri,Calibri_MSFontService,sans-serif" font-style="normal" font-variant="normal" font-weight="400" font-stretch="normal" font-size="31" text-anchor="start" direction="ltr" writing-mode="lr-tb" unicode-bidi="normal" text-decoration="none" transform="matrix(1 0 0 1 1400.41 891)">Identity Governance</text><path d="M1744 848C1744 839.163 1751.16 832 1760 832L2126 832C2134.84 832 2142 839.163 2142 848L2142 912C2142 920.836 2134.84 928 2126 928L1760 928C1751.16 928 1744 920.836 1744 912Z" stroke="#7F7F7F" stroke-width="2.29167" stroke-linecap="butt" stroke-linejoin="round" stroke-miterlimit="10" stroke-opacity="1" fill="#99C0FF" fill-rule="evenodd" fill-opacity="1"/><text fill="#000000" fill-opacity="1" font-family="Calibri,Calibri_MSFontService,sans-serif" font-style="normal" font-variant="normal" font-weight="400" font-stretch="normal" font-size="31" text-anchor="start" direction="ltr" writing-mode="lr-tb" unicode-bidi="normal" text-decoration="none" transform="matrix(1 0 0 1 1845.08 872)">Access and Role</text><text fill="#000000" fill-opacity="1" font-family="Calibri,Calibri_MSFontService,sans-serif" font-style="normal" font-variant="normal" font-weight="400" font-stretch="normal" font-size="31" text-anchor="start" direction="ltr" writing-mode="lr-tb" unicode-bidi="normal" text-decoration="none" transform="matrix(1 0 0 1 1860.55 909)">Management</text><path d="M2161 848C2161 839.163 2168.16 832 2177 832L2543 832C2551.84 832 2559 839.163 2559 848L2559 912C2559 920.836 2551.84 928 2543 928L2177 928C2168.16 928 2161 920.836 2161 912Z" stroke="#7F7F7F" stroke-width="2.29167" stroke-linecap="butt" stroke-linejoin="round" stroke-miterlimit="10" stroke-opacity="1" fill="#99C0FF" fill-rule="evenodd" fill-opacity="1"/><text fill="#000000" fill-opacity="1" font-family="Calibri,Calibri_MSFontService,sans-serif" font-style="normal" font-variant="normal" font-weight="400" font-stretch="normal" font-size="31" text-anchor="start" direction="ltr" writing-mode="lr-tb" unicode-bidi="normal" text-decoration="none" transform="matrix(1 0 0 1 2221.58 872)">Privileged Identity and </text><text fill="#000000" fill-opacity="1" font-family="Calibri,Calibri_MSFontService,sans-serif" font-style="normal" font-variant="normal" font-weight="400" font-stretch="normal" font-size="31" text-anchor="start" direction="ltr" writing-mode="lr-tb" unicode-bidi="normal" text-decoration="none" transform="matrix(1 0 0 1 2232.19 909)">Access Management</text><path d="M2578 848C2578 839.163 2585.16 832 2594 832L2960 832C2968.84 832 2976 839.163 2976 848L2976 912C2976 920.836 2968.84 928 2960 928L2594 928C2585.16 928 2578 920.836 2578 912Z" stroke="#7F7F7F" stroke-width="2.29167" stroke-linecap="butt" stroke-linejoin="round" stroke-miterlimit="10" stroke-opacity="1" fill="#99C0FF" fill-rule="evenodd" fill-opacity="1"/><text fill="#000000" fill-opacity="1" font-family="Calibri,Calibri_MSFontService,sans-serif" font-style="normal" font-variant="normal" font-weight="400" font-stretch="normal" font-size="31" text-anchor="start" direction="ltr" writing-mode="lr-tb" unicode-bidi="normal" text-decoration="none" transform="matrix(1 0 0 1 2732.71 872)">Secrets</text><text fill="#000000" fill-opacity="1" font-family="Calibri,Calibri_MSFontService,sans-serif" font-style="normal" font-variant="normal" font-weight="400" font-stretch="normal" font-size="31" text-anchor="start" direction="ltr" writing-mode="lr-tb" unicode-bidi="normal" text-decoration="none" transform="matrix(1 0 0 1 2694.32 909)">Management</text><path d="M910 959C910 950.163 917.163 943 926 943L1292 943C1300.84 943 1308 950.163 1308 959L1308 1023C1308 1031.84 1300.84 1039 1292 1039L926 1039C917.163 1039 910 1031.84 910 1023Z" stroke="#7F7F7F" stroke-width="2.29167" stroke-linecap="butt" stroke-linejoin="round" stroke-miterlimit="10" stroke-opacity="1" fill="#F2F2F2" fill-rule="evenodd" fill-opacity="1"/><text fill="#000000" fill-opacity="1" font-family="Calibri,Calibri_MSFontService,sans-serif" font-style="normal" font-variant="normal" font-weight="400" font-stretch="normal" font-size="31" text-anchor="start" direction="ltr" writing-mode="lr-tb" unicode-bidi="normal" text-decoration="none" transform="matrix(1 0 0 1 987.534 1001)">Platform Protection</text><path d="M1327 959C1327 950.163 1334.16 943 1343 943L1709 943C1717.84 943 1725 950.163 1725 959L1725 1023C1725 1031.84 1717.84 1039 1709 1039L1343 1039C1334.16 1039 1327 1031.84 1327 1023Z" stroke="#7F7F7F" stroke-width="2.29167" stroke-linecap="butt" stroke-linejoin="round" stroke-miterlimit="10" stroke-opacity="1" fill="#99C0FF" fill-rule="evenodd" fill-opacity="1"/><text fill="#000000" fill-opacity="1" font-family="Calibri,Calibri_MSFontService,sans-serif" font-style="normal" font-variant="normal" font-weight="400" font-stretch="normal" font-size="31" text-anchor="start" direction="ltr" writing-mode="lr-tb" unicode-bidi="normal" text-decoration="none" transform="matrix(1 0 0 1 1402.7 1001)">Endpoint Protection</text><path d="M1744 959C1744 950.163 1751.16 943 1760 943L2126 943C2134.84 943 2142 950.163 2142 959L2142 1023C2142 1031.84 2134.84 1039 2126 1039L1760 1039C1751.16 1039 1744 1031.84 1744 1023Z" stroke="#7F7F7F" stroke-width="2.29167" stroke-linecap="butt" stroke-linejoin="round" stroke-miterlimit="10" stroke-opacity="1" fill="#99C0FF" fill-rule="evenodd" fill-opacity="1"/><text fill="#000000" fill-opacity="1" font-family="Calibri,Calibri_MSFontService,sans-serif" font-style="normal" font-variant="normal" font-weight="400" font-stretch="normal" font-size="31" text-anchor="start" direction="ltr" writing-mode="lr-tb" unicode-bidi="normal" text-decoration="none" transform="matrix(1 0 0 1 1845.37 1001)">Edge Protection</text><path d="M2161 959C2161 950.163 2168.16 943 2177 943L2543 943C2551.84 943 2559 950.163 2559 959L2559 1023C2559 1031.84 2551.84 1039 2543 1039L2177 1039C2168.16 1039 2161 1031.84 2161 1023Z" stroke="#7F7F7F" stroke-width="2.29167" stroke-linecap="butt" stroke-linejoin="round" stroke-miterlimit="10" stroke-opacity="1" fill="#99C0FF" fill-rule="evenodd" fill-opacity="1"/><text fill="#000000" fill-opacity="1" font-family="Calibri,Calibri_MSFontService,sans-serif" font-style="normal" font-variant="normal" font-weight="400" font-stretch="normal" font-size="31" text-anchor="start" direction="ltr" writing-mode="lr-tb" unicode-bidi="normal" text-decoration="none" transform="matrix(1 0 0 1 2274 983)">Core Network</text><text fill="#000000" fill-opacity="1" font-family="Calibri,Calibri_MSFontService,sans-serif" font-style="normal" font-variant="normal" font-weight="400" font-stretch="normal" font-size="31" text-anchor="start" direction="ltr" writing-mode="lr-tb" unicode-bidi="normal" text-decoration="none" transform="matrix(1 0 0 1 2296.05 1020)">Protection</text><path d="M2578 959C2578 950.163 2585.16 943 2594 943L2960 943C2968.84 943 2976 950.163 2976 959L2976 1023C2976 1031.84 2968.84 1039 2960 1039L2594 1039C2585.16 1039 2578 1031.84 2578 1023Z" stroke="#7F7F7F" stroke-width="2.29167" stroke-linecap="butt" stroke-linejoin="round" stroke-miterlimit="10" stroke-opacity="1" fill="#F2F2F2" fill-rule="evenodd" fill-opacity="1"/><text fill="#000000" fill-opacity="1" font-family="Calibri,Calibri_MSFontService,sans-serif" font-style="normal" font-variant="normal" font-weight="400" font-stretch="normal" font-size="31" text-anchor="start" direction="ltr" writing-mode="lr-tb" unicode-bidi="normal" text-decoration="none" transform="matrix(1 0 0 1 2659.95 983)">Multi</text><text fill="#000000" fill-opacity="1" font-family="Calibri,Calibri_MSFontService,sans-serif" font-style="normal" font-variant="normal" font-weight="400" font-stretch="normal" font-size="31" text-anchor="start" direction="ltr" writing-mode="lr-tb" unicode-bidi="normal" text-decoration="none" transform="matrix(1 0 0 1 2726.41 983)">-</text><text fill="#000000" fill-opacity="1" font-family="Calibri,Calibri_MSFontService,sans-serif" font-style="normal" font-variant="normal" font-weight="400" font-stretch="normal" font-size="31" text-anchor="start" direction="ltr" writing-mode="lr-tb" unicode-bidi="normal" text-decoration="none" transform="matrix(1 0 0 1 2736.15 983)">Environment</text><text fill="#000000" fill-opacity="1" font-family="Calibri,Calibri_MSFontService,sans-serif" font-style="normal" font-variant="normal" font-weight="400" font-stretch="normal" font-size="31" text-anchor="start" direction="ltr" writing-mode="lr-tb" unicode-bidi="normal" text-decoration="none" transform="matrix(1 0 0 1 2640.47 1020)">Security Management</text><path d="M910 1069C910 1060.16 917.163 1053 926 1053L1292 1053C1300.84 1053 1308 1060.16 1308 1069L1308 1133C1308 1141.84 1300.84 1149 1292 1149L926 1149C917.163 1149 910 1141.84 910 1133Z" stroke="#7F7F7F" stroke-width="2.29167" stroke-linecap="butt" stroke-linejoin="round" stroke-miterlimit="10" stroke-opacity="1" fill="#99C0FF" fill-rule="evenodd" fill-opacity="1"/><text fill="#000000" fill-opacity="1" font-family="Calibri,Calibri_MSFontService,sans-serif" font-style="normal" font-variant="normal" font-weight="400" font-stretch="normal" font-size="31" text-anchor="start" direction="ltr" writing-mode="lr-tb" unicode-bidi="normal" text-decoration="none" transform="matrix(1 0 0 1 974.643 1093)">Vulnerability Lifecycle </text><text fill="#000000" fill-opacity="1" font-family="Calibri,Calibri_MSFontService,sans-serif" font-style="normal" font-variant="normal" font-weight="400" font-stretch="normal" font-size="31" text-anchor="start" direction="ltr" writing-mode="lr-tb" unicode-bidi="normal" text-decoration="none" transform="matrix(1 0 0 1 1026.78 1130)">Management</text><path d="M1327 1069C1327 1060.16 1334.16 1053 1343 1053L1709 1053C1717.84 1053 1725 1060.16 1725 1069L1725 1133C1725 1141.84 1717.84 1149 1709 1149L1343 1149C1334.16 1149 1327 1141.84 1327 1133Z" stroke="#7F7F7F" stroke-width="2.29167" stroke-linecap="butt" stroke-linejoin="round" stroke-miterlimit="10" stroke-opacity="1" fill="#F2F2F2" fill-rule="evenodd" fill-opacity="1"/><text fill="#000000" fill-opacity="1" font-family="Calibri,Calibri_MSFontService,sans-serif" font-style="normal" font-variant="normal" font-weight="400" font-stretch="normal" font-size="31" text-anchor="start" direction="ltr" writing-mode="lr-tb" unicode-bidi="normal" text-decoration="none" transform="matrix(1 0 0 1 1429.06 1112)">Security Testing</text><path d="M1744 1069C1744 1060.16 1751.16 1053 1760 1053L2126 1053C2134.84 1053 2142 1060.16 2142 1069L2142 1133C2142 1141.84 2134.84 1149 2126 1149L1760 1149C1751.16 1149 1744 1141.84 1744 1133Z" stroke="#7F7F7F" stroke-width="2.29167" stroke-linecap="butt" stroke-linejoin="round" stroke-miterlimit="10" stroke-opacity="1" fill="#99C0FF" fill-rule="evenodd" fill-opacity="1"/><text fill="#000000" fill-opacity="1" font-family="Calibri,Calibri_MSFontService,sans-serif" font-style="normal" font-variant="normal" font-weight="400" font-stretch="normal" font-size="31" text-anchor="start" direction="ltr" writing-mode="lr-tb" unicode-bidi="normal" text-decoration="none" transform="matrix(1 0 0 1 1838.78 1112)">Threat Detection</text><path d="M2161 1069C2161 1060.16 2168.16 1053 2177 1053L2543 1053C2551.84 1053 2559 1060.16 2559 1069L2559 1133C2559 1141.84 2551.84 1149 2543 1149L2177 1149C2168.16 1149 2161 1141.84 2161 1133Z" stroke="#7F7F7F" stroke-width="2.29167" stroke-linecap="butt" stroke-linejoin="round" stroke-miterlimit="10" stroke-opacity="1" fill="#99C0FF" fill-rule="evenodd" fill-opacity="1"/><text fill="#000000" fill-opacity="1" font-family="Calibri,Calibri_MSFontService,sans-serif" font-style="normal" font-variant="normal" font-weight="400" font-stretch="normal" font-size="31" text-anchor="start" direction="ltr" writing-mode="lr-tb" unicode-bidi="normal" text-decoration="none" transform="matrix(1 0 0 1 2236.47 1093)">Threat Investigation</text><text fill="#000000" fill-opacity="1" font-family="Calibri,Calibri_MSFontService,sans-serif" font-style="normal" font-variant="normal" font-weight="400" font-stretch="normal" font-size="31" text-anchor="start" direction="ltr" writing-mode="lr-tb" unicode-bidi="normal" text-decoration="none" transform="matrix(1 0 0 1 2274.86 1130)">and Response</text><path d="M2578 1069C2578 1060.16 2585.16 1053 2594 1053L2960 1053C2968.84 1053 2976 1060.16 2976 1069L2976 1133C2976 1141.84 2968.84 1149 2960 1149L2594 1149C2585.16 1149 2578 1141.84 2578 1133Z" stroke="#7F7F7F" stroke-width="2.29167" stroke-linecap="butt" stroke-linejoin="round" stroke-miterlimit="10" stroke-opacity="1" fill="#F2F2F2" fill-rule="evenodd" fill-opacity="1"/><text fill="#000000" fill-opacity="1" font-family="Calibri,Calibri_MSFontService,sans-serif" font-style="normal" font-variant="normal" font-weight="400" font-stretch="normal" font-size="31" text-anchor="start" direction="ltr" writing-mode="lr-tb" unicode-bidi="normal" text-decoration="none" transform="matrix(1 0 0 1 2661.38 1093)">Threat Intelligence</text><text fill="#000000" fill-opacity="1" font-family="Calibri,Calibri_MSFontService,sans-serif" font-style="normal" font-variant="normal" font-weight="400" font-stretch="normal" font-size="31" text-anchor="start" direction="ltr" writing-mode="lr-tb" unicode-bidi="normal" text-decoration="none" transform="matrix(1 0 0 1 2702.06 1130)">and Hunting</text><path d="M910 1180C910 1171.16 917.163 1164 926 1164L1292 1164C1300.84 1164 1308 1171.16 1308 1180L1308 1244C1308 1252.84 1300.84 1260 1292 1260L926 1260C917.163 1260 910 1252.84 910 1244Z" stroke="#7F7F7F" stroke-width="2.29167" stroke-linecap="butt" stroke-linejoin="round" stroke-miterlimit="10" stroke-opacity="1" fill="#F2F2F2" fill-rule="evenodd" fill-opacity="1"/><text fill="#000000" fill-opacity="1" font-family="Calibri,Calibri_MSFontService,sans-serif" font-style="normal" font-variant="normal" font-weight="400" font-stretch="normal" font-size="31" text-anchor="start" direction="ltr" writing-mode="lr-tb" unicode-bidi="normal" text-decoration="none" transform="matrix(1 0 0 1 921.19 1204)">Incident, Problem and Change </text><text fill="#000000" fill-opacity="1" font-family="Calibri,Calibri_MSFontService,sans-serif" font-style="normal" font-variant="normal" font-weight="400" font-stretch="normal" font-size="31" text-anchor="start" direction="ltr" writing-mode="lr-tb" unicode-bidi="normal" text-decoration="none" transform="matrix(1 0 0 1 992.232 1241)">(IPC) Management</text><path d="M1327 1180C1327 1171.16 1334.16 1164 1343 1164L1709 1164C1717.84 1164 1725 1171.16 1725 1180L1725 1244C1725 1252.84 1717.84 1260 1709 1260L1343 1260C1334.16 1260 1327 1252.84 1327 1244Z" stroke="#7F7F7F" stroke-width="2.29167" stroke-linecap="butt" stroke-linejoin="round" stroke-miterlimit="10" stroke-opacity="1" fill="#99C0FF" fill-rule="evenodd" fill-opacity="1"/><text fill="#000000" fill-opacity="1" font-family="Calibri,Calibri_MSFontService,sans-serif" font-style="normal" font-variant="normal" font-weight="400" font-stretch="normal" font-size="31" text-anchor="start" direction="ltr" writing-mode="lr-tb" unicode-bidi="normal" text-decoration="none" transform="matrix(1 0 0 1 1377.03 1204)">Asset and Configuration </text><text fill="#000000" fill-opacity="1" font-family="Calibri,Calibri_MSFontService,sans-serif" font-style="normal" font-variant="normal" font-weight="400" font-stretch="normal" font-size="31" text-anchor="start" direction="ltr" writing-mode="lr-tb" unicode-bidi="normal" text-decoration="none" transform="matrix(1 0 0 1 1442.07 1241)">Management</text><path d="M1744 1180C1744 1171.16 1751.16 1164 1760 1164L2126 1164C2134.84 1164 2142 1171.16 2142 1180L2142 1244C2142 1252.84 2134.84 1260 2126 1260L1760 1260C1751.16 1260 1744 1252.84 1744 1244Z" stroke="#7F7F7F" stroke-width="2.29167" stroke-linecap="butt" stroke-linejoin="round" stroke-miterlimit="10" stroke-opacity="1" fill="#F2F2F2" fill-rule="evenodd" fill-opacity="1"/><text fill="#000000" fill-opacity="1" font-family="Calibri,Calibri_MSFontService,sans-serif" font-style="normal" font-variant="normal" font-weight="400" font-stretch="normal" font-size="31" text-anchor="start" direction="ltr" writing-mode="lr-tb" unicode-bidi="normal" text-decoration="none" transform="matrix(1 0 0 1 1774.44 1204)">Performance, Capacity and </text><text fill="#000000" fill-opacity="1" font-family="Calibri,Calibri_MSFontService,sans-serif" font-style="normal" font-variant="normal" font-weight="400" font-stretch="normal" font-size="31" text-anchor="start" direction="ltr" writing-mode="lr-tb" unicode-bidi="normal" text-decoration="none" transform="matrix(1 0 0 1 1810.54 1241)">Service Management</text><path d="M2161 1180C2161 1171.16 2168.16 1164 2177 1164L2543 1164C2551.84 1164 2559 1171.16 2559 1180L2559 1244C2559 1252.84 2551.84 1260 2543 1260L2177 1260C2168.16 1260 2161 1252.84 2161 1244Z" stroke="#7F7F7F" stroke-width="2.29167" stroke-linecap="butt" stroke-linejoin="round" stroke-miterlimit="10" stroke-opacity="1" fill="#F2F2F2" fill-rule="evenodd" fill-opacity="1"/><text fill="#000000" fill-opacity="1" font-family="Calibri,Calibri_MSFontService,sans-serif" font-style="normal" font-variant="normal" font-weight="400" font-stretch="normal" font-size="31" text-anchor="start" direction="ltr" writing-mode="lr-tb" unicode-bidi="normal" text-decoration="none" transform="matrix(1 0 0 1 2238.59 1204)">Business Continuity</text><text fill="#000000" fill-opacity="1" font-family="Calibri,Calibri_MSFontService,sans-serif" font-style="normal" font-variant="normal" font-weight="400" font-stretch="normal" font-size="31" text-anchor="start" direction="ltr" writing-mode="lr-tb" unicode-bidi="normal" text-decoration="none" transform="matrix(1 0 0 1 2270.68 1241)">and Resilience</text><path d="M2578 1180C2578 1171.16 2585.16 1164 2594 1164L2960 1164C2968.84 1164 2976 1171.16 2976 1180L2976 1244C2976 1252.84 2968.84 1260 2960 1260L2594 1260C2585.16 1260 2578 1252.84 2578 1244Z" stroke="#7F7F7F" stroke-width="2.29167" stroke-linecap="butt" stroke-linejoin="round" stroke-miterlimit="10" stroke-opacity="1" fill="#F2F2F2" fill-rule="evenodd" fill-opacity="1"/><text fill="#000000" fill-opacity="1" font-family="Calibri,Calibri_MSFontService,sans-serif" font-style="normal" font-variant="normal" font-weight="400" font-stretch="normal" font-size="31" text-anchor="start" direction="ltr" writing-mode="lr-tb" unicode-bidi="normal" text-decoration="none" transform="matrix(1 0 0 1 2671.81 1204)">Architecture and</text><text fill="#000000" fill-opacity="1" font-family="Calibri,Calibri_MSFontService,sans-serif" font-style="normal" font-variant="normal" font-weight="400" font-stretch="normal" font-size="31" text-anchor="start" direction="ltr" writing-mode="lr-tb" unicode-bidi="normal" text-decoration="none" transform="matrix(1 0 0 1 2619.67 1241)">Operations Management</text><path d="M262 516.001C262 507.164 269.164 500 278 500L878 500C886.836 500 894 507.164 894 516.001L894 580C894 588.836 886.836 596 878 596L278 596C269.164 596 262 588.836 262 580Z" fill="#0D0D0D" fill-rule="evenodd" fill-opacity="1"/><text fill="#FFFFFF" fill-opacity="1" font-family="Calibri,Calibri_MSFontService,sans-serif" font-style="normal" font-variant="normal" font-weight="400" font-stretch="normal" font-size="31" text-anchor="start" direction="ltr" writing-mode="lr-tb" unicode-bidi="normal" text-decoration="none" transform="matrix(1 0 0 1 366.683 559)">Governance, Risk and Compliance</text><path d="M496 627C496 618.163 503.164 611 512 611L878 611C886.837 611 894 618.163 894 627L894 691C894 699.836 886.837 707 878 707L512 707C503.164 707 496 699.836 496 691Z" fill="#345C7F" fill-rule="evenodd" fill-opacity="1"/><text fill="#FFFFFF" fill-opacity="1" font-family="Calibri,Calibri_MSFontService,sans-serif" font-style="normal" font-variant="normal" font-weight="400" font-stretch="normal" font-size="31" text-anchor="start" direction="ltr" writing-mode="lr-tb" unicode-bidi="normal" text-decoration="none" transform="matrix(1 0 0 1 634.728 669)">Application</text><path d="M496 738C496 729.163 503.164 722 512 722L878 722C886.837 722 894 729.163 894 738L894 802C894 810.836 886.837 818 878 818L512 818C503.164 818 496 810.836 496 802Z" fill="#345C7F" fill-rule="evenodd" fill-opacity="1"/><text fill="#FFFFFF" fill-opacity="1" font-family="Calibri,Calibri_MSFontService,sans-serif" font-style="normal" font-variant="normal" font-weight="400" font-stretch="normal" font-size="31" text-anchor="start" direction="ltr" writing-mode="lr-tb" unicode-bidi="normal" text-decoration="none" transform="matrix(1 0 0 1 675.691 780)">Data</text><path d="M496 848C496 839.163 503.164 832 512 832L878 832C886.837 832 894 839.163 894 848L894 912C894 920.836 886.837 928 878 928L512 928C503.164 928 496 920.836 496 912Z" fill="#345C7F" fill-rule="evenodd" fill-opacity="1"/><text fill="#FFFFFF" fill-opacity="1" font-family="Calibri,Calibri_MSFontService,sans-serif" font-style="normal" font-variant="normal" font-weight="400" font-stretch="normal" font-size="31" text-anchor="start" direction="ltr" writing-mode="lr-tb" unicode-bidi="normal" text-decoration="none" transform="matrix(1 0 0 1 584.597 891)">Identity and Access</text><path d="M496 959C496 950.163 503.164 943 512 943L878 943C886.837 943 894 950.163 894 959L894 1023C894 1031.84 886.837 1039 878 1039L512 1039C503.164 1039 496 1031.84 496 1023Z" fill="#345C7F" fill-rule="evenodd" fill-opacity="1"/><text fill="#FFFFFF" fill-opacity="1" font-family="Calibri,Calibri_MSFontService,sans-serif" font-style="normal" font-variant="normal" font-weight="400" font-stretch="normal" font-size="31" text-anchor="start" direction="ltr" writing-mode="lr-tb" unicode-bidi="normal" text-decoration="none" transform="matrix(1 0 0 1 618.113 983)">Infrastructure</text><text fill="#FFFFFF" fill-opacity="1" font-family="Calibri,Calibri_MSFontService,sans-serif" font-style="normal" font-variant="normal" font-weight="400" font-stretch="normal" font-size="31" text-anchor="start" direction="ltr" writing-mode="lr-tb" unicode-bidi="normal" text-decoration="none" transform="matrix(1 0 0 1 622.123 1020)">and Endpoint</text><path d="M496 1069C496 1060.16 503.164 1053 512 1053L878 1053C886.837 1053 894 1060.16 894 1069L894 1133C894 1141.84 886.837 1149 878 1149L512 1149C503.164 1149 496 1141.84 496 1133Z" fill="#345C7F" fill-rule="evenodd" fill-opacity="1"/><text fill="#FFFFFF" fill-opacity="1" font-family="Calibri,Calibri_MSFontService,sans-serif" font-style="normal" font-variant="normal" font-weight="400" font-stretch="normal" font-size="31" text-anchor="start" direction="ltr" writing-mode="lr-tb" unicode-bidi="normal" text-decoration="none" transform="matrix(1 0 0 1 599.207 1093)">Threat Detection</text><text fill="#FFFFFF" fill-opacity="1" font-family="Calibri,Calibri_MSFontService,sans-serif" font-style="normal" font-variant="normal" font-weight="400" font-stretch="normal" font-size="31" text-anchor="start" direction="ltr" writing-mode="lr-tb" unicode-bidi="normal" text-decoration="none" transform="matrix(1 0 0 1 618.411 1130)">and Response</text><path d="M496 1180C496 1171.16 503.164 1164 512 1164L878 1164C886.837 1164 894 1171.16 894 1180L894 1244C894 1252.84 886.837 1260 878 1260L512 1260C503.164 1260 496 1252.84 496 1244Z" fill="#7F7F7F" fill-rule="evenodd" fill-opacity="1"/><text fill="#FFFFFF" fill-opacity="1" font-family="Calibri,Calibri_MSFontService,sans-serif" font-style="normal" font-variant="normal" font-weight="400" font-stretch="normal" font-size="31" text-anchor="start" direction="ltr" writing-mode="lr-tb" unicode-bidi="normal" text-decoration="none" transform="matrix(1 0 0 1 561.394 1222)">Supporting Capabilities</text><path d="M460.833 613C469.762 613 477 620.238 477 629.167L477 1243.83C477 1252.76 469.762 1260 460.833 1260L396.167 1260C387.238 1260 380 1252.76 380 1243.83L380 629.167C380 620.238 387.238 613 396.167 613Z" fill="#7F7F7F" fill-rule="evenodd" fill-opacity="1"/><text fill="#FFFFFF" fill-opacity="1" font-family="Calibri,Calibri_MSFontService,sans-serif" font-style="normal" font-variant="normal" font-weight="400" font-stretch="normal" font-size="31" text-anchor="start" direction="ltr" writing-mode="lr-tb" unicode-bidi="normal" text-decoration="none" transform="matrix(6.12323e-17 1 -1 6.12323e-17 418.209 831)">Personnel Security</text><path d="M342.833 616C351.762 616 359 623.238 359 632.167L359 1243.83C359 1252.76 351.762 1260 342.833 1260L278.167 1260C269.238 1260 262 1252.76 262 1243.83L262 632.167C262 623.238 269.238 616 278.167 616Z" fill="#7F7F7F" fill-rule="evenodd" fill-opacity="1"/><text fill="#FFFFFF" fill-opacity="1" font-family="Calibri,Calibri_MSFontService,sans-serif" font-style="normal" font-variant="normal" font-weight="400" font-stretch="normal" font-size="31" text-anchor="start" direction="ltr" writing-mode="lr-tb" unicode-bidi="normal" text-decoration="none" transform="matrix(6.12323e-17 1 -1 6.12323e-17 300.23 845)">Physical Security</text></g></g></svg>